<svg xmlns="http://www.w3.org/2000/svg" fill="#ffffff" viewBox="0 0 24 24">
  <path d="M12 .5C5.65.5.5 5.65.5 12a11.5 11.5 0 0 0 7.87 10.93c.58.1.79-.25.79-.56v-2.2c-3.2.7-3.87-1.54-3.87-1.54-.53-1.33-1.3-1.69-1.3-1.69-1.07-.73.08-.72.08-.72 1.18.08 1.8 1.22 1.8 1.22 1.05 1.79 2.75 1.27 3.42.97.1-.76.4-1.27.73-1.56-2.55-.29-5.23-1.28-5.23-5.7 0-1.26.45-2.3 1.2-3.12-.12-.29-.52-1.46.12-3.05 0 0 .98-.31 3.2 1.2a11 11 0 0 1 5.82 0c2.22-1.5 3.2-1.2 3.2-1.2.64 1.59.24 2.76.12 3.05.75.82 1.2 1.86 1.2 3.12 0 4.43-2.69 5.4-5.25 5.69.42.36.78 1.09.78 2.2v3.27c0 .31.21.66.8.55A11.5 11.5 0 0 0 23.5 12c0-6.35-5.15-11.5-11.5-11.5Z"/>
</svg>